#Comment line ignore any data following # character 
#Hierarchical Translation and Rotation (.htr) file 
[Header]	
#Header keywords are followed by a single value 
FileType HTR		#Single word string
DataType HTRS		#Translation followed by rotation and scale data
FileVersion 1		#integer
NumSegments 64		#integer
NumFrames 3		#integer
DataFrameRate 30		#integer, data frame rate in this file
EulerRotationOrder ZYX
CalibrationUnits mm
RotationUnits Degrees
GlobalAxisofGravity Y
BoneLengthAxis Y
ScaleFactor 1.00
[SegmentNames&Hierarchy]
#CHILD	PARENT
Pinger_Root GLOBAL
Pelvis Pinger_Root
L_Hip Pelvis
R_Hip Pelvis
Rear_Leg01 Pelvis
Spine1 Pelvis
L_Leg01 L_Hip
L_Leg02 L_Leg01
L_Leg03 L_Leg02
L_Foot L_Leg03
L_Toe1_01 L_Foot
L_Toe2_01 L_Foot
L_Toe3_01 L_Foot
planeAlignerLeft L_Foot
L_Toe1_02 L_Toe1_01
L_Toe1_03 L_Toe1_02
L_Toe2_02 L_Toe2_01
L_Toe2_03 L_Toe2_02
L_Toe3_02 L_Toe3_01
L_Toe3_03 L_Toe3_02
planeLockWeightLeft planeAlignerLeft
R_Leg01 R_Hip
R_Leg02 R_Leg01
R_Leg03 R_Leg02
R_Foot R_Leg03
planeAlignerRight R_Foot
R_Toe1_01 R_Foot
R_Toe2_01 R_Foot
R_Toe3_01 R_Foot
planeLockWeightRight planeAlignerRight
R_Toe1_02 R_Toe1_01
R_Toe1_03 R_Toe1_02
R_Toe2_02 R_Toe2_01
R_Toe2_03 R_Toe2_02
R_Toe3_02 R_Toe3_01
R_Toe3_03 R_Toe3_02
Rear_Leg02 Rear_Leg01
Rear_Leg03 Rear_Leg02
Rear_Leg04 Rear_Leg03
Rear_Foot Rear_Leg04
planeAlignerCenter Rear_Foot
Rear_Toe1_01 Rear_Foot
Rear_Toe2_01 Rear_Foot
Rear_Toe3_01 Rear_Foot
planeLockWeightCenter planeAlignerCenter
Rear_Toe1_02 Rear_Toe1_01
Rear_Toe1_03 Rear_Toe1_02
Rear_Toe2_02 Rear_Toe2_01
Rear_Toe2_03 Rear_Toe2_02
Rear_Toe3_02 Rear_Toe3_01
Rear_Toe3_03 Rear_Toe3_02
Back_Bone Spine1
Head Spine1
Motor_Bone Back_Bone
Ping_Mechanism Back_Bone
BN_LookIK Head
bottomMouth Head
L_Mouth01 Head
L_mouthFront Head
mouthGun Head
R_Mouth01 Head
R_mouthFront Head
TopMouth Head
weapon_bone Head
[BasePosition]
#SegmentName Tx, Ty, Tz, Rx, Ry, Rz, BoneLength
Pinger_Root 0.000000 0.000000 0.000000 -90.000000 0.000000 0.000000 10.000000 
Pelvis 0.000000 0.000000 0.000000 0.000000 0.000000 0.000000 10.000000 
L_Hip 0.000000 0.000000 0.000000 0.000000 0.000000 0.000000 10.000000 
R_Hip 0.000000 0.000000 0.000000 0.000000 0.000000 0.000000 10.000000 
Rear_Leg01 0.000000 0.000000 0.000000 0.000000 0.000000 0.000000 10.000000 
Spine1 0.000000 0.000000 0.000000 0.000000 0.000000 0.000000 10.000000 
L_Leg01 0.000000 0.000000 0.000000 0.000000 0.000000 0.000000 10.000000 
L_Leg02 0.000000 0.000000 0.000000 0.000000 0.000000 0.000000 10.000000 
L_Leg03 0.000000 0.000000 0.000000 0.000000 0.000000 0.000000 10.000000 
L_Foot 0.000000 0.000000 0.000000 0.000000 0.000000 0.000000 10.000000 
L_Toe1_01 0.000000 0.000000 0.000000 0.000000 0.000000 0.000000 10.000000 
L_Toe2_01 0.000000 0.000000 0.000000 0.000000 0.000000 0.000000 10.000000 
L_Toe3_01 0.000000 0.000000 0.000000 0.000000 0.000000 0.000000 10.000000 
planeAlignerLeft 0.000000 0.000000 0.000000 0.000000 0.000000 0.000000 10.000000 
L_Toe1_02 0.000000 0.000000 0.000000 0.000000 0.000000 0.000000 10.000000 
L_Toe1_03 0.000000 0.000000 0.000000 0.000000 0.000000 0.000000 10.000000 
L_Toe2_02 0.000000 0.000000 0.000000 0.000000 0.000000 0.000000 10.000000 
L_Toe2_03 0.000000 0.000000 0.000000 0.000000 0.000000 0.000000 10.000000 
L_Toe3_02 0.000000 0.000000 0.000000 0.000000 0.000000 0.000000 10.000000 
L_Toe3_03 0.000000 0.000000 0.000000 0.000000 0.000000 0.000000 10.000000 
planeLockWeightLeft 0.000000 0.000000 0.000000 0.000000 0.000000 0.000000 10.000000 
R_Leg01 0.000000 0.000000 0.000000 0.000000 0.000000 0.000000 10.000000 
R_Leg02 0.000000 0.000000 0.000000 0.000000 0.000000 0.000000 10.000000 
R_Leg03 0.000000 0.000000 0.000000 0.000000 0.000000 0.000000 10.000000 
R_Foot 0.000000 0.000000 0.000000 0.000000 0.000000 0.000000 10.000000 
planeAlignerRight 0.000000 0.000000 0.000000 0.000000 0.000000 0.000000 10.000000 
R_Toe1_01 0.000000 0.000000 0.000000 0.000000 0.000000 0.000000 10.000000 
R_Toe2_01 0.000000 0.000000 0.000000 0.000000 0.000000 0.000000 10.000000 
R_Toe3_01 0.000000 0.000000 0.000000 0.000000 0.000000 0.000000 10.000000 
planeLockWeightRight 0.000000 0.000000 0.000000 0.000000 0.000000 0.000000 10.000000 
R_Toe1_02 0.000000 0.000000 0.000000 0.000000 0.000000 0.000000 10.000000 
R_Toe1_03 0.000000 0.000000 0.000000 0.000000 0.000000 0.000000 10.000000 
R_Toe2_02 0.000000 0.000000 0.000000 0.000000 0.000000 0.000000 10.000000 
R_Toe2_03 0.000000 0.000000 0.000000 0.000000 0.000000 0.000000 10.000000 
R_Toe3_02 0.000000 0.000000 0.000000 0.000000 0.000000 0.000000 10.000000 
R_Toe3_03 0.000000 0.000000 0.000000 0.000000 0.000000 0.000000 10.000000 
Rear_Leg02 0.000000 0.000000 0.000000 0.000000 0.000000 0.000000 10.000000 
Rear_Leg03 0.000000 0.000000 0.000000 0.000000 0.000000 0.000000 10.000000 
Rear_Leg04 0.000000 0.000000 0.000000 0.000000 0.000000 0.000000 10.000000 
Rear_Foot 0.000000 0.000000 0.000000 0.000000 0.000000 0.000000 10.000000 
planeAlignerCenter 0.000000 0.000000 0.000000 0.000000 0.000000 0.000000 10.000000 
Rear_Toe1_01 0.000000 0.000000 0.000000 0.000000 0.000000 0.000000 10.000000 
Rear_Toe2_01 0.000000 0.000000 0.000000 0.000000 0.000000 0.000000 10.000000 
Rear_Toe3_01 0.000000 0.000000 0.000000 0.000000 0.000000 0.000000 10.000000 
planeLockWeightCenter 0.000000 0.000000 0.000000 0.000000 0.000000 0.000000 10.000000 
Rear_Toe1_02 0.000000 0.000000 0.000000 0.000000 0.000000 0.000000 10.000000 
Rear_Toe1_03 0.000000 0.000000 0.000000 0.000000 0.000000 0.000000 10.000000 
Rear_Toe2_02 0.000000 0.000000 0.000000 0.000000 0.000000 0.000000 10.000000 
Rear_Toe2_03 0.000000 0.000000 0.000000 0.000000 0.000000 0.000000 10.000000 
Rear_Toe3_02 0.000000 0.000000 0.000000 0.000000 0.000000 0.000000 10.000000 
Rear_Toe3_03 0.000000 0.000000 0.000000 0.000000 0.000000 0.000000 10.000000 
Back_Bone 0.000000 0.000000 0.000000 0.000000 0.000000 0.000000 10.000000 
Head 0.000000 0.000000 0.000000 0.000000 0.000000 0.000000 10.000000 
Motor_Bone 0.000000 0.000000 0.000000 0.000000 0.000000 0.000000 10.000000 
Ping_Mechanism 0.000000 0.000000 0.000000 0.000000 0.000000 0.000000 10.000000 
BN_LookIK 0.000000 0.000000 0.000000 0.000000 0.000000 0.000000 10.000000 
bottomMouth 0.000000 0.000000 0.000000 0.000000 0.000000 0.000000 10.000000 
L_Mouth01 0.000000 0.000000 0.000000 0.000000 0.000000 0.000000 10.000000 
L_mouthFront 0.000000 0.000000 0.000000 0.000000 0.000000 0.000000 10.000000 
mouthGun 0.000000 0.000000 0.000000 0.000000 0.000000 0.000000 10.000000 
R_Mouth01 0.000000 0.000000 0.000000 0.000000 0.000000 0.000000 10.000000 
R_mouthFront 0.000000 0.000000 0.000000 0.000000 0.000000 0.000000 10.000000 
TopMouth 0.000000 0.000000 0.000000 0.000000 0.000000 0.000000 10.000000 
weapon_bone 0.000000 0.000000 0.000000 0.000000 0.000000 0.000000 10.000000 
#Beginning of Data. Separated by tabs
#Fr	Tx	Ty	Tz	Rx	Ry	Rz	SF
[Pinger_Root]
11 0.000000 0.000000 0.000000 -0.000075 -0.000000 -0.000020 0.000000
12 0.000000 0.000000 0.000000 -0.000075 -0.000000 -0.000020 0.000000
13 0.000000 0.000000 0.000000 -0.000075 -0.000000 -0.000020 0.000000
[Pelvis]
11 41.615597 667.126892 4675.938477 -153.858994 -82.308205 -177.808380 4723.472656
12 11.570862 622.841003 4716.051758 -143.712906 -83.822319 174.685242 4757.016602
13 -27.331654 576.642578 4757.203125 -116.041702 -85.142960 148.546570 4792.102051
[L_Hip]
11 5.766392 125.831482 872.656799 160.903244 -63.792027 113.413033 881.701050
12 5.766392 125.831482 872.656799 161.685333 -66.490936 111.640984 881.701050
13 5.766392 125.831482 872.656799 162.794800 -69.172028 109.553047 881.701050
[R_Hip]
11 5.765438 125.836372 -872.654907 33.586254 66.429230 120.702110 881.699829
12 5.765438 125.836372 -872.654907 31.830826 68.872940 119.121521 881.699829
13 5.765438 125.836372 -872.654907 29.647570 71.294716 117.111748 881.699829
[Rear_Leg01]
11 -192.298416 -925.602966 -0.001907 -169.422455 -29.661077 -143.046555 945.367432
12 -192.298416 -925.602966 -0.001907 -167.395004 -30.396292 -141.340302 945.367432
13 -192.298416 -925.602966 -0.001907 -165.319748 -29.565680 -140.236649 945.367432
[Spine1]
11 290.604584 5.007505 0.000477 -18.082073 16.972277 21.236677 290.647736
12 290.604584 5.007505 0.000477 -20.478771 15.964090 20.813768 290.647736
13 290.604584 5.007505 0.000477 -22.202894 13.677413 20.016180 290.647736
[L_Leg01]
11 761.932007 -0.002384 -0.069261 41.093521 30.398352 -58.501041 761.932068
12 761.932007 -0.002384 -0.069261 46.242043 26.267519 -59.929070 761.932068
13 761.932007 -0.002384 -0.069261 49.971855 21.924215 -62.626331 761.932068
[L_Leg02]
11 1441.140503 -0.000954 -0.000715 -1.573415 0.379907 -79.417374 1441.140503
12 1441.140503 -0.000954 -0.000715 -1.586370 0.445096 -77.142052 1441.140503
13 1441.140503 -0.000954 -0.000715 -1.519680 0.570863 -72.866127 1441.140503
[L_Leg03]
11 1686.963989 -0.000715 -0.000954 0.019203 -0.006060 105.029083 1686.963989
12 1686.963989 -0.000715 -0.000954 0.029412 -0.010159 102.133682 1686.963989
13 1686.963989 -0.000715 -0.000954 0.054262 -0.013017 95.308777 1686.963989
[L_Foot]
11 3041.570068 -30.715107 11.297464 -36.317379 14.862487 65.408699 3041.746094
12 3041.570068 -30.715107 11.297464 -34.370457 14.988087 65.735489 3041.746094
13 3041.570068 -30.715107 11.297464 -32.808594 15.148578 67.470291 3041.746094
[L_Toe1_01]
11 -188.216690 -224.732346 -21.137953 82.552528 5.711864 -163.679901 293.899567
12 -188.216690 -224.732346 -21.137953 84.783867 2.493456 -162.344330 293.899567
13 -188.216690 -224.732346 -21.137953 86.799141 -4.507999 -170.289368 293.899567
[L_Toe2_01]
11 200.746536 -219.926590 148.838394 -78.800026 -1.145707 -47.876232 332.896027
12 200.746536 -219.926590 148.838394 -80.737267 -8.160631 -43.062050 332.896027
13 200.746536 -219.926590 148.838394 -80.193451 -16.257250 -39.040665 332.896027
[L_Toe3_01]
11 188.832520 -219.859131 -191.078659 -102.096344 30.944162 -57.756065 347.140900
12 188.832520 -219.859131 -191.078659 -101.194427 23.537748 -49.370949 347.140900
13 188.832520 -219.859131 -191.078659 -97.562752 16.691788 -39.558884 347.140900
[planeAlignerLeft]
11 -83.083794 -666.531982 -167.564392 0.000000 -90.000000 -90.001633 692.275635
12 -58.302792 -620.028381 -96.931221 0.000000 -90.000000 -90.001633 630.261902
13 -12.274138 -541.497009 34.238762 0.000000 -90.000000 -90.001633 542.717224
[L_Toe1_02]
11 413.761139 0.000477 0.000000 0.001433 -19.940914 0.001433 413.761139
12 413.761139 0.000477 0.000000 0.001398 -24.138302 0.001398 413.761139
13 413.761139 0.000477 0.000000 0.001420 -21.439100 0.001420 413.761139
[L_Toe1_03]
11 464.317322 0.000358 -0.000089 179.795578 89.340622 179.795578 464.317322
12 464.317322 0.000358 -0.000089 0.007804 72.700630 0.007804 464.317322
13 464.317322 0.000358 -0.000089 0.027530 85.113403 0.027530 464.317322
[L_Toe2_02]
11 342.235809 -0.000477 0.000238 0.004684 -81.201408 0.004684 342.235809
12 342.235809 -0.000477 0.000238 0.001178 -79.627769 0.001178 342.235809
13 342.235809 -0.000477 0.000238 0.001179 -78.719490 0.001179 342.235809
[L_Toe2_03]
11 420.210846 -0.000715 0.000000 179.993301 41.713776 -179.999039 420.210846
12 420.210846 -0.000715 0.000000 -179.998871 67.278664 -179.995316 420.210846
13 420.210846 -0.000715 0.000000 -179.998077 72.068817 -179.994537 420.210846
[L_Toe3_02]
11 329.270111 0.000954 0.000000 0.004676 -84.539482 0.004676 329.270111
12 329.270111 0.000954 0.000000 0.001177 -81.286140 0.001177 329.270111
13 329.270111 0.000954 0.000000 0.001176 -82.866280 0.001176 329.270111
[L_Toe3_03]
11 439.137451 -0.001907 0.000954 179.992706 51.836475 -179.999893 439.137451
12 439.137451 -0.001907 0.000954 -179.997269 75.276573 -179.993744 439.137451
13 439.137451 -0.001907 0.000954 179.990494 67.189606 179.997635 439.137451
[planeLockWeightLeft]
11 1000.000366 -0.000000 -0.000010 -0.011826 -0.004376 0.005620 1000.000366
12 1000.000610 -0.000012 -0.000040 -0.011826 -0.004376 0.005620 1000.000610
13 1000.000488 -0.000023 -0.000070 -0.011826 -0.004376 0.005620 1000.000488
[R_Leg01]
11 761.455627 -0.001907 -0.000358 128.054489 1.951585 56.546108 761.455688
12 761.455627 -0.001907 -0.000358 127.247696 -10.552125 52.156666 761.455688
13 761.455627 -0.001907 -0.000358 126.691948 -31.840178 47.611477 761.455688
[R_Leg02]
11 1441.140625 0.000000 -0.000238 -0.339199 0.093201 -104.070198 1441.140625
12 1441.140625 0.000000 -0.000238 -0.609295 0.092246 -119.119987 1441.140625
13 1441.140625 0.000000 -0.000238 -0.866095 0.112224 -135.481430 1441.140625
[R_Leg03]
11 1686.963989 0.000954 0.001431 0.011860 -0.006029 113.420837 1686.963989
12 1686.963989 0.000954 0.001431 0.009158 -0.001838 112.691582 1686.963989
13 1686.963989 0.000954 0.001431 0.002308 -0.000428 111.019775 1686.963989
[R_Foot]
11 3041.560059 -30.531288 -11.204481 3.732509 -40.916954 61.816696 3041.734131
12 3041.560059 -30.531288 -11.204481 0.366924 -38.598656 67.966232 3041.734131
13 3041.560059 -30.531288 -11.204481 -5.397193 -33.069527 71.956902 3041.734131
[planeAlignerRight]
11 -112.983406 -653.765259 -289.269470 -36.577137 -71.339012 -64.343925 723.775574
12 -113.526909 -659.334961 -295.458832 -36.605896 -71.855141 -64.053261 731.373291
13 -109.512642 -664.150269 -304.111694 -36.722160 -73.265938 -63.205124 738.628845
[R_Toe1_01]
11 -188.383347 -224.864899 21.052242 74.698242 -1.651315 -168.143417 294.101532
12 -188.383347 -224.864899 21.052242 74.824486 -0.855133 -167.633148 294.101532
13 -188.383347 -224.864899 21.052242 75.744659 0.828815 -167.129456 294.101532
[R_Toe2_01]
11 200.637817 -220.002121 -148.787384 -97.167145 28.246605 -62.209229 332.857574
12 200.637817 -220.002121 -148.787384 -98.324249 28.126007 -62.341896 332.857574
13 200.637817 -220.002121 -148.787384 -99.836769 28.052582 -62.094555 332.857574
[R_Toe3_01]
11 188.606735 -220.092957 191.126343 -69.815498 -7.113886 -76.873642 347.192566
12 188.606735 -220.092957 191.126343 -69.824211 -6.545228 -76.416618 347.192566
13 188.606735 -220.092957 191.126343 -70.279572 -5.687197 -74.605400 347.192566
[planeLockWeightRight]
11 1000.000000 0.000305 -0.000563 -0.011823 -0.004379 -0.000027 1000.000000
12 740.740417 -0.000305 -0.000668 -0.011823 -0.004379 -0.000027 740.740356
13 259.259460 -0.000000 -0.000114 -0.011823 -0.004379 -0.000027 259.259460
[R_Toe1_02]
11 413.762085 0.000477 -0.000119 0.000006 -25.434675 -0.000005 413.762085
12 413.762085 0.000477 -0.000119 0.000006 -25.434675 -0.000005 413.762085
13 413.762085 0.000477 -0.000119 0.000006 -25.434675 -0.000005 413.762085
[R_Toe1_03]
11 464.317810 0.000000 0.001088 0.006202 68.184013 0.006202 464.317810
12 464.317810 0.000000 0.001088 0.006111 67.855881 0.006111 464.317810
13 464.317810 0.000000 0.001088 0.006214 68.225845 0.006214 464.317810
[R_Toe2_02]
11 342.234741 -0.000954 0.000238 0.001209 -62.174511 0.001209 342.234741
12 342.234741 -0.000954 0.000238 0.001210 -61.955296 0.001210 342.234741
13 342.234741 -0.000954 0.000238 0.001210 -61.736107 0.001210 342.234741
[R_Toe2_03]
11 420.210846 0.000715 -0.000268 -0.004381 64.333321 -0.000794 420.210846
12 420.210846 0.000715 -0.000268 -0.004320 63.680134 -0.000729 420.210846
13 420.210846 0.000715 -0.000268 -0.004315 63.621941 -0.000723 420.210846
[R_Toe3_02]
11 329.270355 -0.000477 -0.000954 -0.002371 -66.883087 -0.002371 329.270355
12 329.270355 -0.000477 -0.000954 -0.002367 -67.828041 -0.002367 329.270355
13 329.270355 -0.000477 -0.000954 -0.000583 -70.572975 -0.000583 329.270355
[R_Toe3_03]
11 439.137939 0.000238 0.001431 0.006063 67.677162 0.006063 439.137939
12 439.137939 0.000238 0.001431 0.006549 69.352631 0.006549 439.137939
13 439.137939 0.000238 0.001431 0.008723 74.535248 0.008723 439.137939
[Rear_Leg02]
11 1162.777710 -0.029802 0.005960 0.197289 -18.135176 -83.397400 1162.777710
12 1162.777710 -0.029802 0.005960 0.129788 -20.269222 -78.540237 1162.777710
13 1162.777710 -0.029802 0.005960 0.209187 -22.245975 -74.009132 1162.777710
[Rear_Leg03]
11 607.192505 -0.013351 -0.073195 0.006542 -0.001892 60.470760 607.192505
12 607.192505 -0.013351 -0.073195 0.006543 -0.001890 60.438332 607.192505
13 607.192505 -0.013351 -0.073195 0.006543 -0.001888 60.405891 607.192505
[Rear_Leg04]
11 995.874512 -0.020504 -0.011921 -0.039474 -0.017700 50.969269 995.874573
12 995.874512 -0.020504 -0.011921 -0.039465 -0.017721 50.909042 995.874573
13 995.874512 -0.020504 -0.011921 -0.039455 -0.017742 50.848797 995.874573
[Rear_Foot]
11 3096.176270 -0.067472 -0.041425 -133.242752 66.979156 48.586956 3096.176270
12 3096.176270 -0.067472 -0.041425 -129.996536 65.259224 50.188446 3096.176270
13 3096.176270 -0.067472 -0.041425 -126.058395 63.972359 52.419930 3096.176270
[planeAlignerCenter]
11 2.704940 -56.450802 -641.613098 12.240773 -0.001473 179.998184 644.097351
12 15.475022 -52.945251 -667.856750 12.240772 -0.001473 179.998184 670.130798
13 32.076218 -46.223759 -702.198730 12.240772 -0.001473 179.998184 704.449158
[Rear_Toe1_01]
11 0.653352 83.966492 -371.173737 0.203555 30.855616 90.294952 380.553192
12 0.653352 83.966492 -371.173737 -0.230442 32.928555 89.520439 380.553192
13 0.653352 83.966492 -371.173737 -0.797784 35.692337 88.513336 380.553192
[Rear_Toe2_01]
11 178.200760 -294.826019 -362.060547 -5.857349 26.916365 -66.597313 499.765686
12 178.200760 -294.826019 -362.060547 -5.256292 28.237541 -65.684906 499.765686
13 178.200760 -294.826019 -362.060547 -4.491009 29.904997 -64.475830 499.765686
[Rear_Toe3_01]
11 -153.359680 -308.780914 -362.060852 4.091298 25.954374 -111.346283 499.952881
12 -153.359680 -308.780914 -362.060852 4.149369 27.446468 -110.772362 499.952881
13 -153.359680 -308.780914 -362.060852 4.254494 29.415876 -110.039093 499.952881
[planeLockWeightCenter]
11 1000.000244 0.000407 -0.000124 -0.011814 -0.004373 -0.000015 1000.000244
12 1000.000244 0.000387 -0.000130 -0.011814 -0.004373 -0.000015 1000.000244
13 1000.000244 0.000366 -0.000135 -0.011814 -0.004373 -0.000015 1000.000244
[Rear_Toe1_02]
11 379.707825 0.194073 0.000477 -0.000767 -33.624729 0.000838 379.707855
12 379.707825 0.194073 0.000477 -0.000767 -33.624729 0.000838 379.707855
13 379.707825 0.194073 0.000477 -0.000767 -33.624729 0.000838 379.707855
[Rear_Toe1_03]
11 500.129700 0.165701 0.000119 0.011210 77.980759 0.011210 500.129761
12 500.129700 0.165701 0.000119 0.008744 74.572533 0.008744 500.129761
13 500.129700 0.165701 0.000119 0.006593 69.491035 0.006593 500.129761
[Rear_Toe2_02]
11 340.494507 0.000238 -0.000954 0.001196 -67.589813 0.001196 340.494507
12 340.494507 0.000238 -0.000954 0.001198 -66.662949 0.001198 340.494507
13 340.494507 0.000238 -0.000954 0.001200 -65.736031 0.001200 340.494507
[Rear_Toe2_03]
11 433.103577 0.000000 0.000238 0.005745 66.425369 0.005745 433.103546
12 433.103577 0.000000 0.000238 0.005455 65.151810 0.005455 433.103546
13 433.103577 0.000000 0.000238 0.005193 63.878189 0.005193 433.103546
[Rear_Toe3_02]
11 340.494141 -0.000358 -0.000477 0.007361 -64.592491 -0.008539 340.494171
12 340.494141 -0.000358 -0.000477 0.006084 -65.674850 -0.006365 340.494171
13 340.494141 -0.000358 -0.000477 0.004646 -66.757339 -0.004035 340.494171
[Rear_Toe3_03]
11 433.103577 0.001431 -0.000238 -0.000590 62.189911 -0.004193 433.103546
12 433.103577 0.001431 -0.000238 -0.000720 63.592339 -0.004312 433.103546
13 433.103577 0.001431 -0.000238 -0.000864 64.994728 -0.004446 433.103546
[Back_Bone]
11 1312.175781 -701.934692 0.000954 -0.275151 0.640277 -84.977081 1488.125488
12 1312.175781 -701.934692 0.000954 -0.541062 0.724812 -84.894485 1488.125488
13 1312.175781 -701.934692 0.000954 -0.806862 0.809730 -84.812279 1488.125488
[Head]
11 1406.159424 809.709290 0.001431 -3.969397 3.221864 5.899454 1622.625488
12 1406.159424 809.709290 0.001431 -4.574046 3.886173 5.574812 1622.625488
13 1406.159424 809.709290 0.001431 -5.182813 4.546835 5.242969 1622.625488
[Motor_Bone]
11 1158.364380 -417.834747 0.000477 -0.811084 0.098215 -105.891487 1231.419434
12 1158.364380 -417.834747 0.000477 -0.882653 0.100442 -105.889076 1231.419434
13 1158.364380 -417.834747 0.000477 -1.083235 0.103882 -105.884850 1231.419434
[Ping_Mechanism]
11 1219.026489 -431.173096 -39.215652 0.000103 -0.000053 82.120995 1293.628052
12 1221.977417 -434.151001 -30.939043 0.000103 -0.000053 82.120995 1297.178955
13 1229.957886 -439.678925 -20.385880 0.000103 -0.000053 82.120995 1306.342041
[BN_LookIK]
11 193.241119 1380.371704 -0.002861 0.000000 89.965736 -31.038179 1393.832153
12 193.241119 1380.371704 -0.002861 0.000000 89.965736 -31.038179 1393.832153
13 193.241119 1380.371704 -0.002861 0.000000 89.965736 -31.038179 1393.832153
[bottomMouth]
11 -435.092926 615.759399 -0.000954 -0.000022 0.000016 73.527184 753.966492
12 -435.092926 615.759399 -0.000954 -0.000022 0.000016 73.527184 753.966492
13 -435.092926 615.759399 -0.000954 -0.000022 0.000016 73.527184 753.966492
[L_Mouth01]
11 554.440979 7.658243 838.222046 150.204178 23.759130 109.605339 1005.027161
12 554.440979 7.658243 838.222046 150.204178 23.759130 109.605339 1005.027161
13 554.440979 7.658243 838.222046 150.204178 23.759130 109.605339 1005.027161
[L_mouthFront]
11 551.629089 934.514771 339.150421 0.000081 2.804060 79.119301 1136.941284
12 551.629089 934.514771 339.150421 0.000081 2.804060 79.119301 1136.941284
13 551.629089 934.514771 339.150421 0.000081 2.804060 79.119301 1136.941284
[mouthGun]
11 55.332661 1627.420898 0.000000 0.000023 0.000009 -11.038128 1628.361328
12 55.332661 1627.420898 0.000000 0.000023 0.000009 -11.038128 1628.361328
13 55.332661 1627.420898 0.000000 0.000023 0.000009 -11.038128 1628.361328
[R_Mouth01]
11 554.442383 7.659197 -838.223938 29.795891 -23.759109 109.605331 1005.029541
12 554.442383 7.659197 -838.223938 29.795891 -23.759109 109.605331 1005.029541
13 554.442383 7.659197 -838.223938 29.795891 -23.759109 109.605331 1005.029541
[R_mouthFront]
11 551.629089 934.514282 -339.151367 0.000029 -2.803930 79.119133 1136.941162
12 551.629089 934.514282 -339.151367 0.000029 -2.803930 79.119133 1136.941162
13 551.629089 934.514282 -339.151367 0.000029 -2.803930 79.119133 1136.941162
[TopMouth]
11 461.269867 -56.106091 -0.008583 -0.000059 -0.000268 92.025169 464.669525
12 461.269867 -56.106091 -0.008583 -0.000059 -0.000268 92.025169 464.669525
13 461.269867 -56.106091 -0.008583 -0.000059 -0.000268 92.025169 464.669525
[weapon_bone]
11 -987.239868 1448.372803 0.001431 0.000000 89.965736 -31.038221 1752.833740
12 -987.239868 1448.372803 0.001431 0.000000 89.965736 -31.038221 1752.833740
13 -987.239868 1448.372803 0.001431 0.000000 89.965736 -31.038221 1752.833740
